<?xml version="1.0" standalone="no"?>
<!DOCTYPE svg PUBLIC "-//W3C//DTD SVG 20010904//EN"
 "http://www.w3.org/TR/2001/REC-SVG-20010904/DTD/svg10.dtd">
<svg version="1.0" xmlns="http://www.w3.org/2000/svg"
 width="700.000000pt" height="700.000000pt" viewBox="0 0 700.000000 700.000000"
 preserveAspectRatio="xMidYMid meet">
<metadata>
Created by potrace 1.11, written by Peter Selinger 2001-2013
</metadata>
<g transform="translate(0.000000,700.000000) scale(0.100000,-0.100000)"
fill="#000000" stroke="none">
<path d="M3398 6866 c-1 -2 -61 -6 -133 -9 -113 -5 -182 -12 -320 -32 -270
-39 -668 -169 -940 -308 -121 -61 -319 -177 -323 -189 -2 -4 -8 -8 -12 -8 -8
0 -153 -98 -193 -130 -530 -421 -870 -862 -1092 -1415 -71 -178 -155 -451
-179 -585 -2 -14 -9 -52 -15 -85 -6 -33 -13 -78 -16 -100 -4 -22 -8 -51 -10
-65 -26 -152 -25 -617 0 -800 100 -711 381 -1307 837 -1778 111 -115 268 -255
369 -330 46 -34 89 -66 94 -70 96 -73 369 -223 550 -302 72 -31 229 -85 335
-115 275 -77 504 -109 775 -109 121 0 291 10 325 19 8 2 38 6 65 10 152 18
384 83 570 160 211 87 393 190 560 315 131 99 157 122 277 242 300 300 525
691 614 1068 48 199 57 283 58 510 1 196 -7 358 -19 392 -2 7 -7 31 -9 53 -11
91 -74 350 -84 341 -2 -3 -6 -42 -8 -88 -2 -46 -9 -114 -15 -153 -6 -38 -13
-83 -15 -100 -12 -75 -50 -220 -85 -322 -252 -732 -865 -1227 -1634 -1319 -80
-10 -322 -10 -415 -1 -385 39 -752 185 -1035 412 -33 26 -114 102 -180 169
-206 208 -331 410 -449 723 -18 50 -63 222 -72 277 -3 21 -8 48 -10 60 -2 11
-7 44 -10 71 -3 28 -7 64 -10 80 -5 40 -5 253 1 335 4 59 7 83 21 175 74 467
347 915 739 1212 93 70 251 166 349 212 214 100 437 164 660 187 198 21 444 3
635 -47 75 -20 89 -18 92 16 1 10 3 25 14 85 4 19 9 46 12 60 2 14 18 93 34
175 17 83 32 163 34 178 2 16 6 40 10 55 3 15 7 38 10 51 3 14 18 93 34 175
39 200 79 405 84 436 3 14 8 41 12 62 8 43 16 39 -140 67 -142 25 -200 34
-320 47 -38 4 -81 9 -95 10 -14 2 -88 6 -165 9 -77 4 -145 8 -152 10 -6 2 -13
2 -15 1z"/>
<path d="M4846 6260 c-26 -11 -57 -27 -67 -36 -58 -53 -127 -236 -145 -385 -3
-30 -9 -58 -11 -62 -3 -5 -7 -185 -9 -400 -4 -463 -13 -804 -23 -935 -1 -17
-29 2 -193 134 -147 118 -194 152 -264 187 -113 57 -327 121 -449 134 -125 13
-407 5 -436 -13 -4 -2 -24 -6 -45 -10 -67 -10 -225 -65 -320 -110 -161 -76
-300 -181 -423 -318 -106 -118 -146 -176 -206 -296 -204 -406 -201 -890 7
-1290 78 -150 220 -326 354 -439 155 -130 436 -254 649 -285 22 -4 55 -9 72
-12 18 -4 79 -7 136 -8 278 -6 511 55 750 197 371 220 614 604 673 1057 4 30
7 372 7 760 0 388 3 722 6 743 l6 37 55 -37 c111 -74 219 -193 372 -408 233
-329 399 -698 484 -1080 9 -38 18 -83 20 -100 3 -16 9 -55 14 -85 29 -170 32
-532 5 -679 -1 -9 -6 -38 -9 -64 -4 -27 -9 -59 -12 -70 -2 -12 -7 -35 -10 -52
-21 -120 -89 -334 -151 -479 -160 -375 -434 -739 -738 -981 -27 -22 -52 -43
-55 -46 -3 -4 -57 -41 -120 -83 -317 -212 -768 -376 -1130 -412 -30 -3 -61 -7
-69 -10 -65 -21 -678 -21 -742 0 -8 3 -42 7 -76 11 -83 8 -143 15 -169 20 -12
3 -39 7 -60 10 -21 3 -93 17 -158 31 -66 13 -121 22 -123 20 -9 -9 130 -66
253 -104 157 -49 268 -76 399 -97 54 -9 101 -18 104 -20 3 -1 38 -6 76 -10 39
-3 99 -10 135 -15 66 -8 560 -5 615 4 17 2 57 8 90 12 33 3 69 8 80 10 11 2
52 9 90 15 39 6 117 22 175 36 58 14 110 26 115 27 86 18 364 118 510 183 98
44 302 152 390 206 93 58 303 209 369 267 389 339 644 660 852 1075 154 305
286 728 319 1020 4 33 9 63 11 66 2 3 6 41 9 84 4 43 8 93 11 109 5 38 5 374
0 436 -10 122 -17 197 -21 220 -2 14 -7 43 -10 65 -3 23 -7 52 -10 65 -3 14
-8 41 -11 60 -33 191 -131 508 -216 699 -140 317 -333 618 -536 836 -26 28
-72 79 -102 115 -30 36 -72 81 -94 100 -22 19 -63 55 -91 80 -210 188 -518
316 -768 318 -67 0 -105 -5 -141 -18z"/>
</g>
</svg>
